<svg width="90" height="90" viewBox="0 0 90 90" fill="none" xmlns="http://www.w3.org/2000/svg">
<path d="M26.0151 33.1443H64.2894L71.8012 67.1142H19.2188L26.0151 33.1443Z" fill="#DE785C"></path>
<rect x="38.8926" y="43.5967" width="12.5196" height="27.9972" fill="#E7B194"></rect>
<path d="M43.2701 40.9834L47.0344 40.9834C49.2644 40.9834 54.9891 46.6481 54.9891 48.9849L54.9891 73.826H51.1368L51.1367 44.2718L39.1678 44.2718L39.1679 73.8334H35.3155L35.3154 48.9849C35.3154 46.6481 41.0401 40.9834 43.2701 40.9834Z" fill="black"></path>
<rect x="71.8018" y="68.981" width="7.83922" height="52.5824" transform="rotate(90 71.8018 68.981)" fill="white"></rect>
<path d="M26.3734 32.0244L19.3107 66.7409H16L23.0627 32.0244L26.3734 32.0244Z" fill="black"></path>
<path d="M63.933 32.0244L71.2821 66.7409H74.6641L67.3149 32.0244L63.933 32.0244Z" fill="black"></path>
<path d="M74.3057 76.8198L73.981 78.2982H70.5232C68.9287 78.2982 68.7517 80.3316 66.8033 80.3316H23.4399C21.4915 80.3316 21.3145 78.2982 19.72 78.2982H16L16.2256 76.8198H74.3057Z" fill="black"></path>
<rect x="74.6641" y="66.7412" width="3.73296" height="58.6634" transform="rotate(90 74.6641 66.7412)" fill="black"></rect>
<path d="M67.5785 33.2966L67.353 31.8182H63.7956C62.2011 31.8182 62.0241 29.7848 60.0757 29.7848H30.1675C28.219 29.7848 28.0421 31.8182 26.4475 31.8182L23.4008 31.8911L22.9531 33.2966H67.5785Z" fill="black"></path>
<rect x="16" y="67.114" width="3.93474" height="11.1989" fill="black"></rect>
<rect x="70.7285" y="67.114" width="3.93474" height="11.1989" fill="black"></rect>
<rect x="43.373" y="10" width="3.93474" height="11.1989" fill="black"></rect>
<rect width="3.97831" height="11.0838" transform="matrix(0.85654 -0.51608 0.48409 0.875018 27.4463 15.0393)" fill="black"></rect>
<rect width="3.97831" height="11.0838" transform="matrix(-0.85654 -0.51608 -0.48409 0.875018 63.2344 15.0393)" fill="black"></rect>
</svg>