<svg width="48" height="48" viewBox="0 0 48 48" fill="none" xmlns="http://www.w3.org/2000/svg">
<path d="M38.1074 24.5146L24.0006 41.0321L9.8932 24.5146C8.99307 23.3183 7.10059 20.9348 7.10059 17.2919C7.10059 12.6768 9.31916 8.9917 14.4182 8.9917C18.7393 8.9917 21.6209 14.3995 21.6209 14.3995C21.8585 14.5731 22.9306 14.6583 24 14.6588C25.0694 14.6583 26.1415 14.5731 26.3792 14.3995C26.3792 14.3995 29.2608 8.9917 33.5818 8.9917C38.6809 8.9917 40.8995 12.6768 40.8995 17.2919C40.8995 20.9348 39.007 23.3183 38.1068 24.5146H38.1074Z" fill="#DE785C"></path>
<path d="M34.5082 7C26.7386 7 24.1055 13.7295 24.0155 13.9666H24.0057L24.0003 13.9612L23.9948 13.9666H23.9851C23.8945 13.7295 21.2614 7 13.4918 7C9.81477 7 5 10.1502 5 16.7999C5 16.8656 5.00109 16.9312 5.00109 16.9963C5.00109 20.9343 6.65864 23.2418 8.18 25.4631L21.6737 41.5232C21.8908 41.7402 22.8234 41.8558 23.8017 41.8694V41.871H24.1148C25.1223 41.8623 26.1027 41.7467 26.3263 41.5232L39.82 25.4631C41.3414 23.2413 42.9989 20.9343 42.9989 16.9963C42.9989 16.9312 43 16.8656 43 16.7999C43 10.1502 38.1852 7 34.5082 7ZM38.1071 24.5147L24.0003 41.0322L9.8929 24.5147C8.99278 23.3183 7.10029 20.9348 7.10029 17.292C7.10029 12.6769 9.31886 8.99178 14.4179 8.99178C18.739 8.99178 21.6206 14.3996 21.6206 14.3996C21.8582 14.5732 22.9303 14.6584 23.9997 14.6589C25.0691 14.6584 26.1413 14.5732 26.3789 14.3996C26.3789 14.3996 29.2605 8.99178 33.5815 8.99178C38.6806 8.99178 40.8992 12.6769 40.8992 17.292C40.8992 20.9348 39.0067 23.3183 38.1066 24.5147H38.1071Z" fill="black"></path>
</svg>