<svg xmlns="http://www.w3.org/2000/svg" width="16" height="16" viewBox="0 0 16 16" fill="currentColor"><g transform="translate(3.643 3.643) scale(1 1)"><path d="M 0.854 0.146 C 0.658 -0.049 0.342 -0.049 0.146 0.146 C -0.049 0.342 -0.049 0.658 0.146 0.854 L 3.65 4.357 L 0.146 7.86 C -0.049 8.056 -0.049 8.372 0.146 8.567 C 0.342 8.763 0.658 8.763 0.854 8.567 L 4.357 5.064 L 7.86 8.567 C 8.056 8.763 8.372 8.763 8.567 8.567 C 8.763 8.372 8.763 8.056 8.567 7.86 L 5.064 4.357 L 8.567 0.854 C 8.763 0.658 8.763 0.342 8.567 0.146 C 8.372 -0.049 8.056 -0.049 7.86 0.146 L 4.357 3.65 L 0.854 0.146 Z" fill-rule="evenodd"></path></g></svg>