<svg xmlns="http://www.w3.org/2000/svg" width="24" height="24" viewBox="0 0 24 24" fill="currentColor"><g transform="translate(0 0) scale(1 1)"><path d="M 9 18 C 13.971 18 18 13.971 18 9 C 18 4.029 13.971 0 9 0 C 4.029 0 0 4.029 0 9 C 0 13.971 4.029 18 9 18 Z M 9.75 5.25 C 9.75 5.664 9.416 6 9.004 6 L 8.996 6 C 8.584 6 8.25 5.664 8.25 5.25 C 8.25 4.836 8.584 4.5 8.996 4.5 L 9.004 4.5 C 9.416 4.5 9.75 4.836 9.75 5.25 Z M 9 7.5 C 9.414 7.5 9.75 7.836 9.75 8.25 L 9.75 12.75 C 9.75 13.164 9.414 13.5 9 13.5 C 8.586 13.5 8.25 13.164 8.25 12.75 L 8.25 8.25 C 8.25 7.836 8.586 7.5 9 7.5 Z" fill-rule="evenodd"></path></g></svg>